M48
; DRILL file {KiCad 5.1.10} date Sun Nov 28 00:22:16 2021
; FORMAT={-:-/ absolute / metric / decimal}
; #@! TF.CreationDate,2021-11-28T00:22:16+01:00
; #@! TF.GenerationSoftware,Kicad,Pcbnew,5.1.10
FMAT,2
METRIC
T1C0.300
T2C0.500
T3C0.600
T4C0.800
T5C0.900
T6C1.000
T7C1.016
T8C1.100
T9C3.200
T10C6.100
T11C0.991
T12C2.000
T13C2.375
%
G90
G05
T1
X26.5Y-50.5
X26.86Y-109.156
X27.0Y-63.0
X27.368Y-117.348
X28.2Y-82.8
X28.321Y-117.348
X28.324Y-114.236
X28.341Y-108.335
X28.384Y-115.887
X28.4Y-81.8
X29.4Y-88.9
X30.0Y-88.2
X30.0Y-89.65
X30.4Y-64.0
X30.7Y-74.4
X31.4Y-64.0
X31.6Y-79.4
X32.639Y-97.79
X33.0Y-68.6
X34.132Y-68.532
X34.312Y-98.933
X34.722Y-100.711
X34.871Y-111.373
X34.925Y-106.426
X35.0Y-66.497
X35.512Y-108.558
X35.629Y-81.603
X35.941Y-82.423
X35.969Y-68.631
X36.449Y-100.457
X36.924Y-68.6
X38.0Y-91.0
X38.8Y-68.6
X40.334Y-79.556
X40.5Y-83.7
X40.894Y-97.536
X40.894Y-102.906
X41.2Y-79.8
X41.6Y-78.6
X41.6Y-77.597
X41.6Y-110.4
X41.847Y-80.271
X42.418Y-118.491
X42.867Y-78.199
X43.4Y-53.4
X43.434Y-52.349
X43.434Y-55.626
X43.434Y-58.928
X43.434Y-62.103
X43.536Y-75.554
X44.6Y-75.6
X44.6Y-76.6
X46.8Y-82.6
X47.2Y-55.8
X47.2Y-58.928
X47.2Y-62.2
X47.4Y-51.4
X47.4Y-84.8
X48.4Y-79.2
X48.6Y-69.8
X48.6Y-71.0
X48.941Y-79.943
X49.6Y-68.4
X49.6Y-69.8
X50.0Y-77.6
X50.0Y-91.4
X50.379Y-81.688
X50.6Y-68.4
X50.8Y-72.4
X50.8Y-74.6
X51.5Y-82.689
X51.511Y-73.99
X52.8Y-74.7
X53.721Y-78.0
X54.711Y-74.689
X65.556Y-58.956
X66.2Y-83.8
X66.6Y-83.0
X67.176Y-78.024
X67.4Y-64.0
X67.4Y-125.4
X68.0Y-78.0
X68.411Y-125.46
X68.8Y-77.8
X69.0Y-119.8
X69.6Y-125.8
X72.0Y-126.8
X72.6Y-77.6
X72.616Y-79.2
X74.178Y-99.227
X76.6Y-99.8
X85.2Y-69.8
X85.8Y-97.8
X86.6Y-85.0
X87.4Y-94.8
X88.108Y-71.2
X88.4Y-72.8
X88.545Y-100.8
X88.8Y-82.2
X89.0Y-68.2
X89.2Y-97.8
X89.342Y-90.297
X89.37Y-75.17
X89.8Y-94.8
X90.881Y-76.657
X91.059Y-97.79
X91.537Y-70.356
X91.6Y-93.2
X91.694Y-72.39
X91.8Y-69.6
X92.146Y-95.085
X92.6Y-80.6
X92.8Y-97.6
X92.8Y-84.8
X93.0Y-76.6
X93.6Y-65.8
X93.6Y-74.6
X94.0Y-107.6
X94.0Y-90.4
X94.183Y-72.39
X94.6Y-62.2
X95.0Y-95.6
X95.6Y-80.4
X95.8Y-93.2
X95.877Y-83.667
X96.2Y-107.6
X96.53Y-97.6
X96.8Y-68.4
X97.25Y-70.378
X97.8Y-71.8
X98.8Y-82.6
X99.6Y-82.0
X100.0Y-87.6
X100.0Y-99.0
X100.0Y-107.2
X100.176Y-108.376
X102.567Y-99.1
X102.6Y-121.0
X103.4Y-107.2
X103.8Y-99.6
X104.4Y-81.8
X104.4Y-85.8
X105.334Y-82.55
X105.918Y-87.757
X106.0Y-90.2
X106.0Y-109.0
X106.852Y-98.348
X107.2Y-108.976
X108.2Y-95.4
X108.8Y-82.6
X109.2Y-80.4
X109.4Y-85.8
X109.4Y-99.8
X109.6Y-90.2
X109.8Y-107.2
X110.0Y-105.4
X110.4Y-123.2
X110.998Y-87.757
X111.0Y-82.8
X111.117Y-98.385
X111.2Y-71.2
X111.2Y-74.6
X111.6Y-112.4
X111.794Y-128.806
X114.2Y-75.8
X114.427Y-85.8
X114.444Y-98.385
X114.6Y-82.0
X115.189Y-83.811
X116.0Y-82.8
X116.078Y-87.528
X116.832Y-99.071
X117.0Y-95.2
X117.0Y-97.0
X117.2Y-69.6
X117.4Y-74.8
X117.5Y-98.3
X119.2Y-127.6
X119.4Y-82.0
X119.507Y-75.6
X119.6Y-87.0
X119.6Y-120.8
X119.6Y-126.4
X120.2Y-117.4
X120.4Y-70.4
X120.4Y-80.0
X120.4Y-87.0
X120.4Y-108.4
X120.4Y-119.6
X120.6Y-95.6
X120.8Y-101.0
X121.0Y-82.8
X121.968Y-108.712
X121.968Y-112.522
X122.0Y-124.4
X122.2Y-69.0
X122.4Y-74.8
X123.0Y-112.4
X123.0Y-116.2
X123.6Y-107.2
X123.8Y-121.4
X124.0Y-100.8
X124.4Y-75.6
X124.6Y-81.8
X124.6Y-87.0
X125.4Y-117.4
X125.6Y-108.2
X125.778Y-110.378
X125.778Y-112.776
X126.7Y-117.5
X127.6Y-107.0
X128.0Y-97.2
X128.4Y-99.6
X128.6Y-95.8
X128.6Y-119.6
X128.8Y-124.4
X129.0Y-121.4
X129.2Y-110.4
X129.644Y-120.734
X129.8Y-111.0
X129.8Y-117.4
X130.0Y-101.0
X130.0Y-106.2
X130.0Y-126.4
X130.0Y-70.8
X133.6Y-51.4
X133.8Y-127.8
X134.0Y-96.0
X134.0Y-101.0
X134.0Y-106.0
X134.0Y-116.2
X134.0Y-121.2
X134.2Y-85.8
X134.2Y-111.2
X135.8Y-127.8
T2
X27.572Y-53.34
X27.572Y-124.46
X28.275Y-51.643
X28.275Y-55.037
X28.275Y-122.763
X28.275Y-126.157
X29.972Y-50.94
X29.972Y-55.74
X29.972Y-122.06
X29.972Y-126.86
X31.669Y-51.643
X31.669Y-55.037
X31.669Y-122.763
X31.669Y-126.157
X32.372Y-53.34
X32.372Y-124.46
X153.81Y-53.34
X153.81Y-124.46
X154.513Y-51.643
X154.513Y-55.037
X154.513Y-122.763
X154.513Y-126.157
X156.21Y-50.94
X156.21Y-55.74
X156.21Y-122.06
X156.21Y-126.86
X157.907Y-51.643
X157.907Y-55.037
X157.907Y-122.763
X157.907Y-126.157
X158.61Y-53.34
X158.61Y-124.46
T3
X26.284Y-83.207
X26.7Y-79.3
X28.0Y-86.2
X29.146Y-109.537
X29.172Y-111.722
X29.172Y-115.316
X29.172Y-119.253
X29.9Y-86.8
X29.972Y-113.538
X29.972Y-117.475
X30.049Y-110.108
X30.8Y-106.6
X34.2Y-105.6
X35.941Y-73.025
X35.941Y-74.549
X36.119Y-71.272
X36.131Y-76.136
X36.8Y-96.8
X38.8Y-94.8
X39.306Y-71.374
X39.307Y-76.2
X39.472Y-73.025
X39.472Y-74.549
X40.259Y-108.331
X40.259Y-115.443
X40.259Y-118.999
X40.5Y-113.0
X43.5Y-90.0
X50.4Y-83.388
X52.311Y-83.4
X52.8Y-75.8
X52.959Y-69.215
X53.4Y-124.4
X54.737Y-53.086
X54.737Y-54.102
X54.991Y-55.626
X55.0Y-99.4
X55.0Y-104.0
X55.2Y-109.4
X55.2Y-114.0
X55.4Y-83.8
X55.4Y-119.8
X55.499Y-62.611
X55.6Y-53.6
X55.8Y-52.0
X56.388Y-56.642
X59.2Y-75.208
X60.6Y-60.8
X65.4Y-72.2
X65.48Y-63.2
X65.6Y-74.0
X66.4Y-68.4
X67.6Y-59.4
X68.2Y-65.0
X68.2Y-66.8
X68.4Y-69.6
X77.2Y-94.6
X78.0Y-66.8
X78.0Y-83.2
X79.8Y-63.2
X80.6Y-79.0
X80.8Y-71.2
X83.0Y-95.0
X85.0Y-90.4
X85.471Y-76.3
X88.6Y-80.4
X94.8Y-50.0
X94.8Y-67.2
X96.2Y-76.0
X98.0Y-85.6
X98.0Y-100.8
X98.5Y-90.0
X100.0Y-64.0
X100.6Y-84.8
X102.6Y-100.8
X105.2Y-64.0
X106.8Y-51.4
X112.1Y-74.58
X116.4Y-74.6
X118.4Y-67.31
X118.405Y-74.6
X121.2Y-74.6
X122.4Y-88.2
X128.5Y-89.8
X130.4Y-72.4
X131.2Y-88.6
X131.4Y-78.4
X135.2Y-92.8
X135.8Y-78.4
X135.8Y-89.0
X136.0Y-83.6
X136.0Y-115.4
X136.0Y-120.8
X136.0Y-125.8
X136.2Y-98.6
X136.2Y-108.8
X136.4Y-63.2
X141.4Y-74.2
X146.05Y-106.045
X147.32Y-93.853
X148.59Y-101.727
X148.793Y-113.386
X151.511Y-96.901
X151.551Y-91.734
X154.391Y-82.591
X154.432Y-100.584
X156.362Y-117.373
X158.877Y-96.901
T4
X29.591Y-71.601
X29.591Y-76.481
T5
X99.4Y-126.406
X103.8Y-126.406
T6
X47.117Y-86.36
X47.117Y-96.52
X47.117Y-101.6
X47.117Y-106.68
X47.117Y-111.76
X47.117Y-116.84
X47.117Y-121.92
X47.117Y-127.0
X49.657Y-86.36
X49.657Y-96.52
X49.657Y-101.6
X49.657Y-106.68
X49.657Y-111.76
X49.657Y-116.84
X49.657Y-121.92
X49.657Y-127.0
X57.277Y-81.28
X57.277Y-86.36
X57.277Y-91.44
X57.277Y-96.52
X57.277Y-101.6
X57.277Y-106.68
X57.277Y-111.76
X57.277Y-116.84
X57.277Y-121.92
X57.277Y-127.0
X59.817Y-81.28
X59.817Y-86.36
X59.817Y-91.44
X59.817Y-96.52
X59.817Y-101.6
X59.817Y-106.68
X59.817Y-111.76
X59.817Y-116.84
X59.817Y-121.92
X59.817Y-127.0
X62.23Y-53.086
X62.23Y-55.626
X62.23Y-58.166
X62.23Y-60.706
X62.23Y-63.246
X62.23Y-65.786
X62.23Y-68.326
X62.23Y-70.866
X62.23Y-73.406
X62.357Y-81.28
X62.357Y-86.36
X62.357Y-91.44
X62.357Y-96.52
X62.357Y-101.6
X62.357Y-106.68
X62.357Y-111.76
X62.357Y-116.84
X62.357Y-121.92
X62.357Y-127.0
X64.897Y-81.28
X64.897Y-86.36
X64.897Y-91.44
X64.897Y-96.52
X64.897Y-101.6
X64.897Y-106.68
X64.897Y-111.76
X64.897Y-116.84
X64.897Y-121.92
X64.897Y-127.0
X97.89Y-91.932
X100.43Y-91.932
X102.97Y-91.932
X105.51Y-91.932
X132.08Y-82.55
X132.08Y-85.09
X139.7Y-81.28
X139.7Y-86.36
X139.7Y-91.44
X139.7Y-96.266
X139.7Y-101.6
X139.7Y-106.68
X139.7Y-111.76
X139.7Y-116.84
X139.7Y-121.92
X139.7Y-127.0
X142.24Y-81.28
X142.24Y-86.36
X142.24Y-91.44
X142.24Y-96.266
X142.24Y-101.6
X142.24Y-106.68
X142.24Y-111.76
X142.24Y-116.84
X142.24Y-121.92
X142.24Y-127.0
T7
X154.94Y-85.09
X154.94Y-87.63
X154.94Y-90.17
X154.94Y-102.87
X154.94Y-105.41
X154.94Y-107.95
X154.94Y-110.49
X154.94Y-113.03
X157.48Y-85.09
X157.48Y-87.63
X157.48Y-90.17
X157.48Y-102.87
X157.48Y-105.41
X157.48Y-107.95
X157.48Y-110.49
X157.48Y-113.03
T8
X26.416Y-95.3
X26.416Y-101.8
X30.916Y-95.3
X30.916Y-101.8
X119.305Y-94.234
X119.305Y-98.734
X125.805Y-94.234
X125.805Y-98.734
T9
X29.972Y-53.34
X29.972Y-124.46
X156.21Y-53.34
X156.21Y-124.46
T10
X73.66Y-57.15
X87.63Y-57.15
X101.6Y-57.15
X115.57Y-57.15
X129.54Y-57.15
T11
X28.371Y-62.387
X35.991Y-61.371
X35.991Y-63.403
T12
X90.05Y-92.432
X90.05Y-116.232
X113.35Y-92.432
X113.35Y-116.232
T13
X28.371Y-59.847
X28.371Y-64.927
X34.086Y-59.847
X34.086Y-64.927
T3
G00X27.495Y-84.58
M15
G01X26.195Y-84.58
M16
G05
G00X27.495Y-93.22
M15
G01X26.195Y-93.22
M16
G05
G00X29.945Y-85.9
M15
G01X29.945Y-85.9
M16
G05
G00X29.945Y-92.025
M15
G01X29.945Y-91.775
M16
G05
G00X30.17Y-84.58
M15
G01X31.17Y-84.58
M16
G05
G00X30.17Y-93.22
M15
G01X31.17Y-93.22
M16
G05
T0
M30
