G04 #@! TF.GenerationSoftware,KiCad,Pcbnew,5.1.10*
G04 #@! TF.CreationDate,2021-11-28T00:22:19+01:00*
G04 #@! TF.ProjectId,board,626f6172-642e-46b6-9963-61645f706362,rev?*
G04 #@! TF.SameCoordinates,Original*
G04 #@! TF.FileFunction,Legend,Bot*
G04 #@! TF.FilePolarity,Positive*
%FSLAX46Y46*%
G04 Gerber Fmt 4.6, Leading zero omitted, Abs format (unit mm)*
G04 Created by KiCad (PCBNEW 5.1.10) date 2021-11-28 00:22:19*
%MOMM*%
%LPD*%
G01*
G04 APERTURE LIST*
%ADD10C,0.150000*%
%ADD11C,0.120000*%
G04 APERTURE END LIST*
D10*
X152225238Y-74636761D02*
X152082380Y-74684380D01*
X151844285Y-74684380D01*
X151749047Y-74636761D01*
X151701428Y-74589142D01*
X151653809Y-74493904D01*
X151653809Y-74398666D01*
X151701428Y-74303428D01*
X151749047Y-74255809D01*
X151844285Y-74208190D01*
X152034761Y-74160571D01*
X152130000Y-74112952D01*
X152177619Y-74065333D01*
X152225238Y-73970095D01*
X152225238Y-73874857D01*
X152177619Y-73779619D01*
X152130000Y-73732000D01*
X152034761Y-73684380D01*
X151796666Y-73684380D01*
X151653809Y-73732000D01*
X150891904Y-74160571D02*
X151225238Y-74160571D01*
X151225238Y-74684380D02*
X151225238Y-73684380D01*
X150749047Y-73684380D01*
X150510952Y-73684380D02*
X149939523Y-73684380D01*
X150225238Y-74684380D02*
X150225238Y-73684380D01*
X155868095Y-75334380D02*
X155296666Y-75334380D01*
X155582380Y-76334380D02*
X155582380Y-75334380D01*
X154582380Y-76286761D02*
X154677619Y-76334380D01*
X154868095Y-76334380D01*
X154963333Y-76286761D01*
X155010952Y-76191523D01*
X155010952Y-75810571D01*
X154963333Y-75715333D01*
X154868095Y-75667714D01*
X154677619Y-75667714D01*
X154582380Y-75715333D01*
X154534761Y-75810571D01*
X154534761Y-75905809D01*
X155010952Y-76001047D01*
X153677619Y-76286761D02*
X153772857Y-76334380D01*
X153963333Y-76334380D01*
X154058571Y-76286761D01*
X154106190Y-76239142D01*
X154153809Y-76143904D01*
X154153809Y-75858190D01*
X154106190Y-75762952D01*
X154058571Y-75715333D01*
X153963333Y-75667714D01*
X153772857Y-75667714D01*
X153677619Y-75715333D01*
X153249047Y-76334380D02*
X153249047Y-75334380D01*
X152820476Y-76334380D02*
X152820476Y-75810571D01*
X152868095Y-75715333D01*
X152963333Y-75667714D01*
X153106190Y-75667714D01*
X153201428Y-75715333D01*
X153249047Y-75762952D01*
X152344285Y-75667714D02*
X152344285Y-76334380D01*
X152344285Y-75762952D02*
X152296666Y-75715333D01*
X152201428Y-75667714D01*
X152058571Y-75667714D01*
X151963333Y-75715333D01*
X151915714Y-75810571D01*
X151915714Y-76334380D01*
X151296666Y-76334380D02*
X151391904Y-76286761D01*
X151439523Y-76239142D01*
X151487142Y-76143904D01*
X151487142Y-75858190D01*
X151439523Y-75762952D01*
X151391904Y-75715333D01*
X151296666Y-75667714D01*
X151153809Y-75667714D01*
X151058571Y-75715333D01*
X151010952Y-75762952D01*
X150963333Y-75858190D01*
X150963333Y-76143904D01*
X151010952Y-76239142D01*
X151058571Y-76286761D01*
X151153809Y-76334380D01*
X151296666Y-76334380D01*
X150391904Y-76334380D02*
X150487142Y-76286761D01*
X150534761Y-76191523D01*
X150534761Y-75334380D01*
X149868095Y-76334380D02*
X149963333Y-76286761D01*
X150010952Y-76239142D01*
X150058571Y-76143904D01*
X150058571Y-75858190D01*
X150010952Y-75762952D01*
X149963333Y-75715333D01*
X149868095Y-75667714D01*
X149725238Y-75667714D01*
X149630000Y-75715333D01*
X149582380Y-75762952D01*
X149534761Y-75858190D01*
X149534761Y-76143904D01*
X149582380Y-76239142D01*
X149630000Y-76286761D01*
X149725238Y-76334380D01*
X149868095Y-76334380D01*
X148677619Y-75667714D02*
X148677619Y-76477238D01*
X148725238Y-76572476D01*
X148772857Y-76620095D01*
X148868095Y-76667714D01*
X149010952Y-76667714D01*
X149106190Y-76620095D01*
X148677619Y-76286761D02*
X148772857Y-76334380D01*
X148963333Y-76334380D01*
X149058571Y-76286761D01*
X149106190Y-76239142D01*
X149153809Y-76143904D01*
X149153809Y-75858190D01*
X149106190Y-75762952D01*
X149058571Y-75715333D01*
X148963333Y-75667714D01*
X148772857Y-75667714D01*
X148677619Y-75715333D01*
X148201428Y-76334380D02*
X148201428Y-75667714D01*
X148201428Y-75334380D02*
X148249047Y-75382000D01*
X148201428Y-75429619D01*
X148153809Y-75382000D01*
X148201428Y-75334380D01*
X148201428Y-75429619D01*
X147344285Y-76286761D02*
X147439523Y-76334380D01*
X147630000Y-76334380D01*
X147725238Y-76286761D01*
X147772857Y-76191523D01*
X147772857Y-75810571D01*
X147725238Y-75715333D01*
X147630000Y-75667714D01*
X147439523Y-75667714D01*
X147344285Y-75715333D01*
X147296666Y-75810571D01*
X147296666Y-75905809D01*
X147772857Y-76001047D01*
X146915714Y-76286761D02*
X146820476Y-76334380D01*
X146630000Y-76334380D01*
X146534761Y-76286761D01*
X146487142Y-76191523D01*
X146487142Y-76143904D01*
X146534761Y-76048666D01*
X146630000Y-76001047D01*
X146772857Y-76001047D01*
X146868095Y-75953428D01*
X146915714Y-75858190D01*
X146915714Y-75810571D01*
X146868095Y-75715333D01*
X146772857Y-75667714D01*
X146630000Y-75667714D01*
X146534761Y-75715333D01*
D11*
X74771267Y-78110000D02*
X74428733Y-78110000D01*
X74771267Y-77090000D02*
X74428733Y-77090000D01*
X74771267Y-78690000D02*
X74428733Y-78690000D01*
X74771267Y-79710000D02*
X74428733Y-79710000D01*
X85371400Y-97885067D02*
X85371400Y-97542533D01*
X84351400Y-97885067D02*
X84351400Y-97542533D01*
X88927400Y-97542533D02*
X88927400Y-97885067D01*
X87907400Y-97542533D02*
X87907400Y-97885067D01*
X86129400Y-97542533D02*
X86129400Y-97885067D01*
X87149400Y-97542533D02*
X87149400Y-97885067D01*
X93241400Y-97885067D02*
X93241400Y-97542533D01*
X94261400Y-97885067D02*
X94261400Y-97542533D01*
X92483400Y-97542533D02*
X92483400Y-97885067D01*
X91463400Y-97542533D02*
X91463400Y-97885067D01*
X90705400Y-97885067D02*
X90705400Y-97542533D01*
X89685400Y-97885067D02*
X89685400Y-97542533D01*
X83593400Y-97542533D02*
X83593400Y-97885067D01*
X82573400Y-97542533D02*
X82573400Y-97885067D01*
X124168000Y-109104000D02*
X124168000Y-106654000D01*
X127388000Y-107304000D02*
X127388000Y-109104000D01*
X28571267Y-68710000D02*
X28228733Y-68710000D01*
X28571267Y-67690000D02*
X28228733Y-67690000D01*
X27176000Y-71837733D02*
X27176000Y-72180267D01*
X28196000Y-71837733D02*
X28196000Y-72180267D01*
X28196000Y-75609267D02*
X28196000Y-75266733D01*
X27176000Y-75609267D02*
X27176000Y-75266733D01*
X36239267Y-75821000D02*
X35896733Y-75821000D01*
X36239267Y-74801000D02*
X35896733Y-74801000D01*
X39198733Y-74297000D02*
X39541267Y-74297000D01*
X39198733Y-73277000D02*
X39541267Y-73277000D01*
X39198733Y-74801000D02*
X39541267Y-74801000D01*
X39198733Y-75821000D02*
X39541267Y-75821000D01*
X31113000Y-107270733D02*
X31113000Y-107613267D01*
X32133000Y-107270733D02*
X32133000Y-107613267D01*
X31113000Y-110826733D02*
X31113000Y-111169267D01*
X32133000Y-110826733D02*
X32133000Y-111169267D01*
X36239267Y-73277000D02*
X35896733Y-73277000D01*
X36239267Y-74297000D02*
X35896733Y-74297000D01*
X38479000Y-107613267D02*
X38479000Y-107270733D01*
X39499000Y-107613267D02*
X39499000Y-107270733D01*
X38479000Y-111169267D02*
X38479000Y-110826733D01*
X39499000Y-111169267D02*
X39499000Y-110826733D01*
X36239267Y-71753000D02*
X35896733Y-71753000D01*
X36239267Y-72773000D02*
X35896733Y-72773000D01*
X39198733Y-71753000D02*
X39541267Y-71753000D01*
X39198733Y-72773000D02*
X39541267Y-72773000D01*
X31113000Y-118319733D02*
X31113000Y-118662267D01*
X32133000Y-118319733D02*
X32133000Y-118662267D01*
X32133000Y-114382733D02*
X32133000Y-114725267D01*
X31113000Y-114382733D02*
X31113000Y-114725267D01*
X38479000Y-118662267D02*
X38479000Y-118319733D01*
X39499000Y-118662267D02*
X39499000Y-118319733D01*
X38479000Y-114725267D02*
X38479000Y-114382733D01*
X39499000Y-114725267D02*
X39499000Y-114382733D01*
X47771267Y-92110000D02*
X47428733Y-92110000D01*
X47771267Y-91090000D02*
X47428733Y-91090000D01*
X81278000Y-75012733D02*
X81278000Y-75355267D01*
X82298000Y-75012733D02*
X82298000Y-75355267D01*
X96590000Y-85671267D02*
X96590000Y-85328733D01*
X97610000Y-85671267D02*
X97610000Y-85328733D01*
X101555733Y-112524000D02*
X101898267Y-112524000D01*
X101555733Y-111504000D02*
X101898267Y-111504000D01*
X92881267Y-66800000D02*
X92538733Y-66800000D01*
X92881267Y-67820000D02*
X92538733Y-67820000D01*
X112812267Y-101689000D02*
X112469733Y-101689000D01*
X112812267Y-100669000D02*
X112469733Y-100669000D01*
X122461000Y-122678267D02*
X122461000Y-122335733D01*
X121441000Y-122678267D02*
X121441000Y-122335733D01*
X53638267Y-72007000D02*
X53295733Y-72007000D01*
X53638267Y-73027000D02*
X53295733Y-73027000D01*
X51687000Y-60280733D02*
X51687000Y-60623267D01*
X52707000Y-60280733D02*
X52707000Y-60623267D01*
X56640000Y-60280733D02*
X56640000Y-60623267D01*
X57660000Y-60280733D02*
X57660000Y-60623267D01*
X57371267Y-74910000D02*
X57028733Y-74910000D01*
X57371267Y-73890000D02*
X57028733Y-73890000D01*
X54819733Y-68451000D02*
X55162267Y-68451000D01*
X54819733Y-69471000D02*
X55162267Y-69471000D01*
X54358000Y-60280733D02*
X54358000Y-60623267D01*
X53338000Y-60280733D02*
X53338000Y-60623267D01*
X56009000Y-60280733D02*
X56009000Y-60623267D01*
X54989000Y-60280733D02*
X54989000Y-60623267D01*
X130832000Y-67834000D02*
X138132000Y-67834000D01*
X130832000Y-69834000D02*
X130832000Y-67834000D01*
X138132000Y-69834000D02*
X130832000Y-69834000D01*
X138132000Y-75168000D02*
X130832000Y-75168000D01*
X130832000Y-75168000D02*
X130832000Y-73168000D01*
X130832000Y-73168000D02*
X138132000Y-73168000D01*
X135310000Y-127371267D02*
X135310000Y-127028733D01*
X134290000Y-127371267D02*
X134290000Y-127028733D01*
X134894000Y-87690733D02*
X134894000Y-88033267D01*
X133874000Y-87690733D02*
X133874000Y-88033267D01*
X80854733Y-71880000D02*
X81197267Y-71880000D01*
X80854733Y-72900000D02*
X81197267Y-72900000D01*
X81197267Y-77468000D02*
X80854733Y-77468000D01*
X81197267Y-78488000D02*
X80854733Y-78488000D01*
X53295733Y-70356000D02*
X53638267Y-70356000D01*
X53295733Y-71376000D02*
X53638267Y-71376000D01*
X58591267Y-69471000D02*
X58248733Y-69471000D01*
X58591267Y-68451000D02*
X58248733Y-68451000D01*
X38981000Y-104616000D02*
X39641000Y-104616000D01*
X37321000Y-104616000D02*
X37981000Y-104616000D01*
X37321000Y-104616000D02*
X37321000Y-102586000D01*
X39641000Y-103206000D02*
X39641000Y-104616000D01*
X34527000Y-104566000D02*
X34527000Y-103156000D01*
X36847000Y-103156000D02*
X36847000Y-105186000D01*
X36847000Y-103156000D02*
X36187000Y-103156000D01*
X35187000Y-103156000D02*
X34527000Y-103156000D01*
X42046267Y-103390000D02*
X41703733Y-103390000D01*
X42046267Y-104410000D02*
X41703733Y-104410000D01*
X26771267Y-80490000D02*
X26428733Y-80490000D01*
X26771267Y-81510000D02*
X26428733Y-81510000D01*
X29828733Y-80490000D02*
X30171267Y-80490000D01*
X29828733Y-81510000D02*
X30171267Y-81510000D01*
X29828733Y-83210000D02*
X30171267Y-83210000D01*
X29828733Y-82190000D02*
X30171267Y-82190000D01*
X29339000Y-98634733D02*
X29339000Y-98977267D01*
X28319000Y-98634733D02*
X28319000Y-98977267D01*
X47796267Y-76456000D02*
X47453733Y-76456000D01*
X47796267Y-75436000D02*
X47453733Y-75436000D01*
X47453733Y-77087000D02*
X47796267Y-77087000D01*
X47453733Y-78107000D02*
X47796267Y-78107000D01*
X45510000Y-90528733D02*
X45510000Y-90871267D01*
X44490000Y-90528733D02*
X44490000Y-90871267D01*
X47428733Y-90310000D02*
X47771267Y-90310000D01*
X47428733Y-89290000D02*
X47771267Y-89290000D01*
X45383267Y-52859400D02*
X45040733Y-52859400D01*
X45383267Y-51839400D02*
X45040733Y-51839400D01*
X45383267Y-55116000D02*
X45040733Y-55116000D01*
X45383267Y-56136000D02*
X45040733Y-56136000D01*
X45510000Y-87128733D02*
X45510000Y-87471267D01*
X44490000Y-87128733D02*
X44490000Y-87471267D01*
X42716267Y-97030000D02*
X42373733Y-97030000D01*
X42716267Y-96010000D02*
X42373733Y-96010000D01*
X42716267Y-127510000D02*
X42373733Y-127510000D01*
X42716267Y-126490000D02*
X42373733Y-126490000D01*
X42716267Y-121410000D02*
X42373733Y-121410000D01*
X42716267Y-122430000D02*
X42373733Y-122430000D01*
X42716267Y-111250000D02*
X42373733Y-111250000D01*
X42716267Y-112270000D02*
X42373733Y-112270000D01*
X42716267Y-116330000D02*
X42373733Y-116330000D01*
X42716267Y-117350000D02*
X42373733Y-117350000D01*
X42716267Y-101090000D02*
X42373733Y-101090000D01*
X42716267Y-102110000D02*
X42373733Y-102110000D01*
X42716267Y-107190000D02*
X42373733Y-107190000D01*
X42716267Y-106170000D02*
X42373733Y-106170000D01*
X45383267Y-59438000D02*
X45040733Y-59438000D01*
X45383267Y-58418000D02*
X45040733Y-58418000D01*
X45383267Y-61593000D02*
X45040733Y-61593000D01*
X45383267Y-62613000D02*
X45040733Y-62613000D01*
X86035564Y-82640000D02*
X83231436Y-82640000D01*
X86035564Y-79920000D02*
X83231436Y-79920000D01*
X88140000Y-74466267D02*
X88140000Y-74123733D01*
X87120000Y-74466267D02*
X87120000Y-74123733D01*
X87124000Y-68370267D02*
X87124000Y-68027733D01*
X86104000Y-68370267D02*
X86104000Y-68027733D01*
X88982733Y-66800000D02*
X89325267Y-66800000D01*
X88982733Y-67820000D02*
X89325267Y-67820000D01*
X107905733Y-105920000D02*
X108248267Y-105920000D01*
X107905733Y-104900000D02*
X108248267Y-104900000D01*
X107905733Y-106678000D02*
X108248267Y-106678000D01*
X107905733Y-107698000D02*
X108248267Y-107698000D01*
X95980067Y-107063000D02*
X95637533Y-107063000D01*
X95980067Y-106043000D02*
X95637533Y-106043000D01*
X122771267Y-97290000D02*
X122428733Y-97290000D01*
X122771267Y-98310000D02*
X122428733Y-98310000D01*
X102063733Y-80770000D02*
X102406267Y-80770000D01*
X102063733Y-81790000D02*
X102406267Y-81790000D01*
X107143733Y-81790000D02*
X107486267Y-81790000D01*
X107143733Y-80770000D02*
X107486267Y-80770000D01*
X112223733Y-81790000D02*
X112566267Y-81790000D01*
X112223733Y-80770000D02*
X112566267Y-80770000D01*
X117303733Y-80770000D02*
X117646267Y-80770000D01*
X117303733Y-81790000D02*
X117646267Y-81790000D01*
X122383733Y-81790000D02*
X122726267Y-81790000D01*
X122383733Y-80770000D02*
X122726267Y-80770000D01*
X131908733Y-107190000D02*
X132251267Y-107190000D01*
X131908733Y-106170000D02*
X132251267Y-106170000D01*
X131908733Y-101090000D02*
X132251267Y-101090000D01*
X131908733Y-102110000D02*
X132251267Y-102110000D01*
X131908733Y-97030000D02*
X132251267Y-97030000D01*
X131908733Y-96010000D02*
X132251267Y-96010000D01*
X122383733Y-76710000D02*
X122726267Y-76710000D01*
X122383733Y-75690000D02*
X122726267Y-75690000D01*
X117303733Y-76710000D02*
X117646267Y-76710000D01*
X117303733Y-75690000D02*
X117646267Y-75690000D01*
X112223733Y-75690000D02*
X112566267Y-75690000D01*
X112223733Y-76710000D02*
X112566267Y-76710000D01*
X112724267Y-124541000D02*
X112381733Y-124541000D01*
X112724267Y-123521000D02*
X112381733Y-123521000D01*
X112724267Y-122890000D02*
X112381733Y-122890000D01*
X112724267Y-121870000D02*
X112381733Y-121870000D01*
X117715733Y-116790000D02*
X118058267Y-116790000D01*
X117715733Y-117810000D02*
X118058267Y-117810000D01*
X112724267Y-126192000D02*
X112381733Y-126192000D01*
X112724267Y-125172000D02*
X112381733Y-125172000D01*
X133178733Y-70356000D02*
X133521267Y-70356000D01*
X133178733Y-71376000D02*
X133521267Y-71376000D01*
X136734733Y-71376000D02*
X137077267Y-71376000D01*
X136734733Y-70356000D02*
X137077267Y-70356000D01*
X102063733Y-86870000D02*
X102406267Y-86870000D01*
X102063733Y-85850000D02*
X102406267Y-85850000D01*
X107143733Y-85850000D02*
X107486267Y-85850000D01*
X107143733Y-86870000D02*
X107486267Y-86870000D01*
X112223733Y-85850000D02*
X112566267Y-85850000D01*
X112223733Y-86870000D02*
X112566267Y-86870000D01*
X117303733Y-86870000D02*
X117646267Y-86870000D01*
X117303733Y-85850000D02*
X117646267Y-85850000D01*
X122383733Y-85850000D02*
X122726267Y-85850000D01*
X122383733Y-86870000D02*
X122726267Y-86870000D01*
X131908733Y-122430000D02*
X132251267Y-122430000D01*
X131908733Y-121410000D02*
X132251267Y-121410000D01*
X131908733Y-112270000D02*
X132251267Y-112270000D01*
X131908733Y-111250000D02*
X132251267Y-111250000D01*
X131908733Y-117350000D02*
X132251267Y-117350000D01*
X131908733Y-116330000D02*
X132251267Y-116330000D01*
X131908733Y-127510000D02*
X132251267Y-127510000D01*
X131908733Y-126490000D02*
X132251267Y-126490000D01*
X133178733Y-75690000D02*
X133521267Y-75690000D01*
X133178733Y-76710000D02*
X133521267Y-76710000D01*
X136734733Y-76710000D02*
X137077267Y-76710000D01*
X136734733Y-75690000D02*
X137077267Y-75690000D01*
X140506267Y-93470000D02*
X140163733Y-93470000D01*
X140506267Y-94490000D02*
X140163733Y-94490000D01*
X140506267Y-99570000D02*
X140163733Y-99570000D01*
X140506267Y-98550000D02*
X140163733Y-98550000D01*
X140506267Y-103630000D02*
X140163733Y-103630000D01*
X140506267Y-104650000D02*
X140163733Y-104650000D01*
X140506267Y-108710000D02*
X140163733Y-108710000D01*
X140506267Y-109730000D02*
X140163733Y-109730000D01*
X140506267Y-114810000D02*
X140163733Y-114810000D01*
X140506267Y-113790000D02*
X140163733Y-113790000D01*
X140506267Y-119890000D02*
X140163733Y-119890000D01*
X140506267Y-118870000D02*
X140163733Y-118870000D01*
X140506267Y-123950000D02*
X140163733Y-123950000D01*
X140506267Y-124970000D02*
X140163733Y-124970000D01*
X36806000Y-105942000D02*
X33806000Y-105942000D01*
X36806000Y-108942000D02*
X32806000Y-108942000D01*
X36806000Y-112498000D02*
X32806000Y-112498000D01*
X36806000Y-109498000D02*
X33806000Y-109498000D01*
X29460000Y-87900000D02*
X29460000Y-90350000D01*
X26240000Y-89700000D02*
X26240000Y-87900000D01*
X36806000Y-119991000D02*
X32806000Y-119991000D01*
X36806000Y-116991000D02*
X33806000Y-116991000D01*
X36806000Y-113054000D02*
X33806000Y-113054000D01*
X36806000Y-116054000D02*
X32806000Y-116054000D01*
D10*
X86305000Y-77480000D02*
X86305000Y-78830000D01*
X83155000Y-77480000D02*
X83155000Y-72830000D01*
X86405000Y-77480000D02*
X86405000Y-72830000D01*
X83155000Y-77480000D02*
X83355000Y-77480000D01*
X83155000Y-72830000D02*
X83355000Y-72830000D01*
X86405000Y-72830000D02*
X86205000Y-72830000D01*
X86405000Y-77480000D02*
X86305000Y-77480000D01*
X95824000Y-87890000D02*
X95824000Y-89240000D01*
X90699000Y-87890000D02*
X90699000Y-83240000D01*
X95949000Y-87890000D02*
X95949000Y-83240000D01*
X90699000Y-87890000D02*
X90924000Y-87890000D01*
X90699000Y-83240000D02*
X90924000Y-83240000D01*
X95949000Y-83240000D02*
X95724000Y-83240000D01*
X95949000Y-87890000D02*
X95824000Y-87890000D01*
X99402000Y-109813000D02*
X99402000Y-109688000D01*
X104052000Y-109813000D02*
X104052000Y-109588000D01*
X104052000Y-104563000D02*
X104052000Y-104788000D01*
X99402000Y-104563000D02*
X99402000Y-104788000D01*
X99402000Y-109813000D02*
X104052000Y-109813000D01*
X99402000Y-104563000D02*
X104052000Y-104563000D01*
X99402000Y-109688000D02*
X98052000Y-109688000D01*
X95035000Y-68620000D02*
X96385000Y-68620000D01*
X95035000Y-73745000D02*
X90385000Y-73745000D01*
X95035000Y-68495000D02*
X90385000Y-68495000D01*
X95035000Y-73745000D02*
X95035000Y-73520000D01*
X90385000Y-73745000D02*
X90385000Y-73520000D01*
X90385000Y-68495000D02*
X90385000Y-68720000D01*
X95035000Y-68495000D02*
X95035000Y-68620000D01*
X114966000Y-94490000D02*
X114966000Y-94615000D01*
X110316000Y-94490000D02*
X110316000Y-94715000D01*
X110316000Y-99740000D02*
X110316000Y-99515000D01*
X114966000Y-99740000D02*
X114966000Y-99515000D01*
X114966000Y-94490000D02*
X110316000Y-94490000D01*
X114966000Y-99740000D02*
X110316000Y-99740000D01*
X114966000Y-94615000D02*
X116316000Y-94615000D01*
X120133000Y-124705000D02*
X120133000Y-126055000D01*
X115008000Y-124705000D02*
X115008000Y-120055000D01*
X120258000Y-124705000D02*
X120258000Y-120055000D01*
X115008000Y-124705000D02*
X115233000Y-124705000D01*
X115008000Y-120055000D02*
X115233000Y-120055000D01*
X120258000Y-120055000D02*
X120033000Y-120055000D01*
X120258000Y-124705000D02*
X120133000Y-124705000D01*
D11*
X127388000Y-113908000D02*
X127388000Y-115708000D01*
X124168000Y-115708000D02*
X124168000Y-113258000D01*
X51780000Y-58274000D02*
X57790000Y-58274000D01*
X54030000Y-51454000D02*
X57790000Y-51454000D01*
X57790000Y-58274000D02*
X57790000Y-57014000D01*
X57790000Y-51454000D02*
X57790000Y-52714000D01*
X56631000Y-70018000D02*
X59581000Y-70018000D01*
X58431000Y-73238000D02*
X56631000Y-73238000D01*
X55515000Y-62845000D02*
X58965000Y-62845000D01*
X55515000Y-62845000D02*
X53565000Y-62845000D01*
X55515000Y-67965000D02*
X57465000Y-67965000D01*
X55515000Y-67965000D02*
X53565000Y-67965000D01*
X106275000Y-82970000D02*
X106275000Y-84670000D01*
X106275000Y-84670000D02*
X103725000Y-84670000D01*
X106275000Y-82970000D02*
X103725000Y-82970000D01*
X111355000Y-82970000D02*
X108805000Y-82970000D01*
X111355000Y-84670000D02*
X108805000Y-84670000D01*
X111355000Y-82970000D02*
X111355000Y-84670000D01*
X116435000Y-82970000D02*
X113885000Y-82970000D01*
X116435000Y-84670000D02*
X113885000Y-84670000D01*
X116435000Y-82970000D02*
X116435000Y-84670000D01*
X121515000Y-82970000D02*
X121515000Y-84670000D01*
X121515000Y-84670000D02*
X118965000Y-84670000D01*
X121515000Y-82970000D02*
X118965000Y-82970000D01*
X106275000Y-88050000D02*
X103725000Y-88050000D01*
X106275000Y-89750000D02*
X103725000Y-89750000D01*
X106275000Y-88050000D02*
X106275000Y-89750000D01*
X111355000Y-88050000D02*
X111355000Y-89750000D01*
X111355000Y-89750000D02*
X108805000Y-89750000D01*
X111355000Y-88050000D02*
X108805000Y-88050000D01*
X116435000Y-88050000D02*
X116435000Y-89750000D01*
X116435000Y-89750000D02*
X113885000Y-89750000D01*
X116435000Y-88050000D02*
X113885000Y-88050000D01*
X121515000Y-88050000D02*
X118965000Y-88050000D01*
X121515000Y-89750000D02*
X118965000Y-89750000D01*
X121515000Y-88050000D02*
X121515000Y-89750000D01*
X66328733Y-65490000D02*
X66671267Y-65490000D01*
X66328733Y-66510000D02*
X66671267Y-66510000D01*
X66328733Y-74490000D02*
X66671267Y-74490000D01*
X66328733Y-75510000D02*
X66671267Y-75510000D01*
X69510000Y-67171267D02*
X69510000Y-66828733D01*
X68490000Y-67171267D02*
X68490000Y-66828733D01*
X72328733Y-73510000D02*
X72671267Y-73510000D01*
X72328733Y-72490000D02*
X72671267Y-72490000D01*
X135628733Y-50890000D02*
X135971267Y-50890000D01*
X135628733Y-51910000D02*
X135971267Y-51910000D01*
X70350000Y-75500000D02*
X70350000Y-72950000D01*
X68650000Y-75500000D02*
X68650000Y-72950000D01*
X70350000Y-75500000D02*
X68650000Y-75500000D01*
X74000000Y-74150000D02*
X74000000Y-75850000D01*
X74000000Y-75850000D02*
X71450000Y-75850000D01*
X74000000Y-74150000D02*
X71450000Y-74150000D01*
X46760000Y-82220000D02*
X45300000Y-82220000D01*
X46760000Y-85380000D02*
X44600000Y-85380000D01*
X46760000Y-85380000D02*
X46760000Y-84450000D01*
X46760000Y-82220000D02*
X46760000Y-83150000D01*
X73760000Y-65420000D02*
X72300000Y-65420000D01*
X73760000Y-68580000D02*
X71600000Y-68580000D01*
X73760000Y-68580000D02*
X73760000Y-67650000D01*
X73760000Y-65420000D02*
X73760000Y-66350000D01*
X70420000Y-69740000D02*
X71350000Y-69740000D01*
X73580000Y-69740000D02*
X72650000Y-69740000D01*
X73580000Y-69740000D02*
X73580000Y-71900000D01*
X70420000Y-69740000D02*
X70420000Y-71200000D01*
X42328733Y-85310000D02*
X42671267Y-85310000D01*
X42328733Y-84290000D02*
X42671267Y-84290000D01*
X42328733Y-82790000D02*
X42671267Y-82790000D01*
X42328733Y-83810000D02*
X42671267Y-83810000D01*
X49571267Y-84910000D02*
X49228733Y-84910000D01*
X49571267Y-83890000D02*
X49228733Y-83890000D01*
X48228733Y-81790000D02*
X48571267Y-81790000D01*
X48228733Y-80770000D02*
X48571267Y-80770000D01*
X69990000Y-67171267D02*
X69990000Y-66828733D01*
X71010000Y-67171267D02*
X71010000Y-66828733D01*
X73990000Y-70328733D02*
X73990000Y-70671267D01*
X75010000Y-70328733D02*
X75010000Y-70671267D01*
X74990000Y-67171267D02*
X74990000Y-66828733D01*
X76010000Y-67171267D02*
X76010000Y-66828733D01*
X68990000Y-70328733D02*
X68990000Y-70671267D01*
X70010000Y-70328733D02*
X70010000Y-70671267D01*
X80510000Y-75671267D02*
X80510000Y-75328733D01*
X79490000Y-75671267D02*
X79490000Y-75328733D01*
X68010000Y-68600000D02*
X68010000Y-71050000D01*
X64790000Y-70400000D02*
X64790000Y-68600000D01*
X104000000Y-95200000D02*
X104000000Y-93800000D01*
X103300000Y-93100000D02*
X102700000Y-93100000D01*
X102000000Y-93800000D02*
X102000000Y-95200000D01*
X102700000Y-95900000D02*
X103300000Y-95900000D01*
X104000000Y-93800000D02*
G75*
G03*
X103300000Y-93100000I-700000J0D01*
G01*
X102700000Y-93100000D02*
G75*
G03*
X102000000Y-93800000I0J-700000D01*
G01*
X102000000Y-95200000D02*
G75*
G03*
X102700000Y-95900000I700000J0D01*
G01*
X103300000Y-95900000D02*
G75*
G03*
X104000000Y-95200000I0J700000D01*
G01*
X105200000Y-95900000D02*
X105800000Y-95900000D01*
X104500000Y-93800000D02*
X104500000Y-95200000D01*
X105800000Y-93100000D02*
X105200000Y-93100000D01*
X106500000Y-95200000D02*
X106500000Y-93800000D01*
X105800000Y-95900000D02*
G75*
G03*
X106500000Y-95200000I0J700000D01*
G01*
X104500000Y-95200000D02*
G75*
G03*
X105200000Y-95900000I700000J0D01*
G01*
X105200000Y-93100000D02*
G75*
G03*
X104500000Y-93800000I0J-700000D01*
G01*
X106500000Y-93800000D02*
G75*
G03*
X105800000Y-93100000I-700000J0D01*
G01*
X100800000Y-93100000D02*
X100200000Y-93100000D01*
X101500000Y-95200000D02*
X101500000Y-93800000D01*
X100200000Y-95900000D02*
X100800000Y-95900000D01*
X99500000Y-93800000D02*
X99500000Y-95200000D01*
X100200000Y-93100000D02*
G75*
G03*
X99500000Y-93800000I0J-700000D01*
G01*
X101500000Y-93800000D02*
G75*
G03*
X100800000Y-93100000I-700000J0D01*
G01*
X100800000Y-95900000D02*
G75*
G03*
X101500000Y-95200000I0J700000D01*
G01*
X99500000Y-95200000D02*
G75*
G03*
X100200000Y-95900000I700000J0D01*
G01*
X97000000Y-93800000D02*
X97000000Y-95200000D01*
X97700000Y-95900000D02*
X98300000Y-95900000D01*
X99000000Y-95200000D02*
X99000000Y-93800000D01*
X98300000Y-93100000D02*
X97700000Y-93100000D01*
X97000000Y-95200000D02*
G75*
G03*
X97700000Y-95900000I700000J0D01*
G01*
X98300000Y-95900000D02*
G75*
G03*
X99000000Y-95200000I0J700000D01*
G01*
X99000000Y-93800000D02*
G75*
G03*
X98300000Y-93100000I-700000J0D01*
G01*
X97700000Y-93100000D02*
G75*
G03*
X97000000Y-93800000I0J-700000D01*
G01*
X137310000Y-53971267D02*
X137310000Y-53628733D01*
X136290000Y-53971267D02*
X136290000Y-53628733D01*
M02*
